<svg xmlns="http://www.w3.org/2000/svg" xmlns:xlink="http://www.w3.org/1999/xlink" viewBox="0 0 349.04 349.05"><defs><style>.cls-1{fill:url(#linear-gradient);}.cls-2{fill:#fff;}</style><linearGradient id="linear-gradient" x1="296.33" y1="94.35" x2="301.7" y2="94.35" gradientTransform="matrix(0, -65.06, -65.06, 0, 6312.36, 19627.43)" gradientUnits="userSpaceOnUse"><stop offset="0" stop-color="#ef4237"/><stop offset="0.16" stop-color="#f04b38"/><stop offset="0.42" stop-color="#f3643a"/><stop offset="0.74" stop-color="#f78b3e"/><stop offset="1" stop-color="#fbb042"/></linearGradient></defs><g id="Layer_1" data-name="Layer 1"><rect class="cls-1" width="349.04" height="349.05" rx="77.12"/><path class="cls-2" d="M276.32,168.18c2.4-1,5.79-1.45,8.34-3a19.26,19.26,0,0,0,3.72-2.63l4-3.93c3.23-2.8,6.72-5.54,12.15-6.5a10.64,10.64,0,0,1,8.64,2.34,14,14,0,0,1,4.2,6.69c2.45,8.81,1.33,16.49.53,24.2a179.79,179.79,0,0,1-4.44,22.53,148.87,148.87,0,0,1-48.56,76.39c-23.32,19.91-53.4,31.74-84.23,33.63A139.9,139.9,0,0,1,92.23,294l4.85.71c-19,6.26-38,12.72-57.1,18.63l-9.78,3,2.53-9.78c5.45-21.07,10.6-42.21,16.35-63.2l.53,3.7c-19.79-35-23.27-77.82-11-115.33A147.92,147.92,0,0,1,114.6,45.27c35.46-17.53,78.75-19.4,116-4.15,18.39,7.91,35.62,19.12,49.14,34a112.11,112.11,0,0,1,27.54,52.29,1.47,1.47,0,0,1-1.13,1.75,1.51,1.51,0,0,1-1.63-.77c-9.21-17-19.61-32.54-32.77-45.71A139.61,139.61,0,0,0,226.43,51c-34-14.72-74.53-15.33-109.11.1s-62.1,46.09-72.95,82.43c-11.21,36.26-5.6,76.75,13.86,108.52l1,1.62-.47,2.09c-4.71,21.25-10,42.35-15,63.53l-7.26-6.76c19-6.43,38.11-12.3,57.19-18.38l2.63-.84,2.23,1.55c23.65,16.41,52.53,25.86,81.77,24.77a132.77,132.77,0,0,0,81.15-29.56,131.21,131.21,0,0,0,45.08-73.88,169.09,169.09,0,0,0,3.55-21.77c.65-7.12,1-14.83-.82-20.51a5.77,5.77,0,0,0-1.62-2.74c-.5-.41-.82-.51-1.86-.32-2,.35-4.91,2.21-7.17,4.42l-3.92,4.08a28.39,28.39,0,0,1-5.36,4c-4,2.13-7.95,4-13.05,3.33a4.21,4.21,0,0,1-1.09-8.06Z"/><path class="cls-2" d="M124.43,158.8l-.5-.22c-2.34-1.44-1.24-5.65-1.24-7.83,0-1.51,0-4.13-1.67-4.84-1.48-.62-3.32.19-4.63.83a83.63,83.63,0,0,0-31.74,27.11,104,104,0,0,0-8.81,15.29c-1.82,3.87-6.77,13.6-1.91,17.07,2.21,1.57,6-1.21,7.84-2.36,8.93-5.64,17.3-12.48,22.78-21.63,2.87-4.79,5.59-9.19,10-12.67,3-2.41,7.21-5.6,11.29-5.59a4,4,0,0,1,4,3.24c.61,2.25-1.24,5-2.27,6.86-1.42,2.58-2.68,5.24-4.06,7.85a151.22,151.22,0,0,0-6.88,13.78c-1.48,3.67-3.06,8.64-.18,12.06,2.4,2.83,6.72,1.09,9.18-.71,2-1.46,3.85-3.1,5.71-4.73.5-.44,5.07-4.23,5-4.3.43.78,1,1.48,1.44,2.23.54.92.22,1.27-.36,2.12-5,7.37-13.19,14.44-22.48,15a13.31,13.31,0,0,1-9-2.61,17.26,17.26,0,0,1-5.34-7.7c-.73-1.93-1.08-4.21-2.47-5.82-3,1.56-5.29,4.56-7.81,6.79a49.36,49.36,0,0,1-8.62,6.23,40.93,40.93,0,0,1-5.88,2.67c-7.66,2.74-15.29.14-19.36-7.06-3.68-6.52-2.27-14.46-.31-21.28A64.33,64.33,0,0,1,64.9,170.4a97.11,97.11,0,0,1,20.17-21.59c8.46-6.67,18.15-11.8,28.78-13.88a18,18,0,0,1,8.7-.14,12.83,12.83,0,0,1,6.27,3.56,13.74,13.74,0,0,1,3.38,11.22c-.34,2.91-1.08,7.24-4,8.69A5.57,5.57,0,0,1,124.43,158.8Z"/><path class="cls-2" d="M284.69,166l-.4,1.63a47,47,0,0,1-4.15,10.86c-.52,1-1,2-1.31,2.47-1.33,2.09-2.63,4.18-3.95,6.28-3.15,5-6.36,9.94-9.87,14.69-8.56,11.58-24.46,24.39-38.35,12.7-16.43-13.83-7.91-38.63,2.79-53.06.77-1,1.57-2.05,2.39-3a55.59,55.59,0,0,1,15.29-12.73,58.84,58.84,0,0,1,8.21-3.82c3.06-1.15,6.32-1.86,9.18-3.48,2.69-1.52,4.51-4.12,7-5.87,3.8-2.64,8.28-4.41,12.7-2.14,3.79,1.95,5,5.58,5.45,9.66a24.91,24.91,0,0,1,0,5.18,65.24,65.24,0,0,1-1.94,11.11c-.49,1.72-1.11,3.41-1.68,5.1-.23.69-.45,1.38-.66,2.06Zm-26.24-9.12-3.7,3.14c-9.64,8.79-17.27,21.07-18.42,34.3-.34,4,0,9.38,2.87,12.54,5.33,6,13.36-2.78,17.19-6.4a74.75,74.75,0,0,0,7.07-7.6,67.12,67.12,0,0,0,10.11-17.16c-.16.31-7-4.16-7.47-4.62C262,167.5,259.65,162.1,258.45,156.89Zm23.1-19.4-3.4,3.78c-3.56,4.68-10.91,17-4.55,22.18.37.3,4,2.23,4.24,1.7,1.82-4.43,4.06-8.76,5.1-13.47A24,24,0,0,0,281.55,137.49Z"/><path class="cls-2" d="M206.29,158.8l-.49-.22c-2.34-1.44-1.24-5.65-1.24-7.83,0-1.51,0-4.13-1.68-4.84-1.48-.62-3.32.19-4.62.83a83.55,83.55,0,0,0-31.74,27.11,103.12,103.12,0,0,0-8.81,15.29c-1.83,3.87-6.78,13.6-1.91,17.07,2.2,1.57,6-1.21,7.83-2.36,8.93-5.64,17.3-12.48,22.78-21.63,2.87-4.79,5.59-9.19,10-12.67,3.05-2.41,7.21-5.6,11.3-5.59a4,4,0,0,1,4,3.24c.61,2.25-1.24,5-2.28,6.86-1.42,2.58-2.68,5.24-4.05,7.85a148.77,148.77,0,0,0-6.89,13.78c-1.47,3.67-3.06,8.64-.17,12.06,2.39,2.83,6.72,1.09,9.17-.71,2-1.46,3.85-3.1,5.72-4.73.49-.44,5.06-4.23,5-4.3.43.78,1,1.48,1.44,2.23.53.92.22,1.27-.36,2.12-5,7.37-13.2,14.44-22.49,15a13.29,13.29,0,0,1-9-2.61,17.36,17.36,0,0,1-5.35-7.7c-.72-1.93-1.08-4.21-2.46-5.82-3,1.56-5.3,4.56-7.82,6.79a49.36,49.36,0,0,1-8.62,6.23,40.44,40.44,0,0,1-5.88,2.67c-7.66,2.74-15.29.14-19.36-7.06-3.67-6.52-2.27-14.46-.3-21.28a64.06,64.06,0,0,1,8.74-18.15,97.11,97.11,0,0,1,20.17-21.59c8.45-6.67,18.15-11.8,28.77-13.88a18,18,0,0,1,8.7-.14,12.82,12.82,0,0,1,6.28,3.56,13.81,13.81,0,0,1,3.38,11.22c-.34,2.91-1.09,7.24-4,8.69A5.6,5.6,0,0,1,206.29,158.8Z"/><path class="cls-2" d="M127.13,257.89a13.23,13.23,0,1,1-13.23-13.23A13.23,13.23,0,0,1,127.13,257.89Z"/><path class="cls-2" d="M185.24,257.89A13.23,13.23,0,1,1,172,244.66,13.22,13.22,0,0,1,185.24,257.89Z"/><path class="cls-2" d="M243.36,257.89a13.23,13.23,0,1,1-13.22-13.23A13.22,13.22,0,0,1,243.36,257.89Z"/></g></svg>