<?xml version="1.0" encoding="utf-8"?>
<!-- Generator: Adobe Illustrator 25.2.1, SVG Export Plug-In . SVG Version: 6.00 Build 0)  -->
<svg version="1.1" id="Layer_1" xmlns="http://www.w3.org/2000/svg" xmlns:xlink="http://www.w3.org/1999/xlink" x="0px" y="0px"
	 viewBox="0 0 349 349" style="enable-background:new 0 0 349 349;" xml:space="preserve">
<style type="text/css">
	.st0{fill:url(#SVGID_1_);}
	.st1{fill:#FFFFFF;}
</style>
<linearGradient id="SVGID_1_" gradientUnits="userSpaceOnUse" x1="-73.2648" y1="627.2536" x2="-67.8998" y2="627.2536" gradientTransform="matrix(0 -65.06 65.06 0 -40634.5977 -4418.4092)">
	<stop  offset="0" style="stop-color:#EF4237"/>
	<stop  offset="0.16" style="stop-color:#F04B38"/>
	<stop  offset="0.42" style="stop-color:#F3643A"/>
	<stop  offset="0.74" style="stop-color:#F78B3E"/>
	<stop  offset="1" style="stop-color:#FBB042"/>
</linearGradient>
<path class="st0" d="M77.1,0h194.8C314.5,0,349,34.5,349,77.1v194.8c0,42.6-34.5,77.1-77.1,77.1H77.1C34.5,349,0,314.5,0,271.9V77.1
	C0,34.5,34.5,0,77.1,0z"/>
<g>
	<path class="st1" d="M319,163.9c-0.7-2.2-1.8-4.7-4.3-6.8c-2.2-2-5.5-2.8-8.1-2.5c3.2,5.6,5.1,12,5.4,18.7c0,0.2,0,0.3,0,0.5
		c0.3,4.3,0,9.1-0.4,13.6c-0.7,7.3-1.9,14.9-3.6,22.1c-6.2,29-22.5,56.1-45.7,74.9c-23.2,18.9-52.7,29.6-82.3,30
		c-29.7,1.1-59-8.5-83-25.1l-2.3-1.6l-2.7,0.9c-16.1,5.1-32.2,10.1-48.2,15.4c4.3-18.1,8.8-36.2,12.8-54.3l0.5-2.1l-1-1.6
		c-19.7-32.2-25.4-73.3-14.1-110.1c11-36.9,39-68.1,74-83.6c35.1-15.7,76.2-15,110.7-0.1c17.3,7.5,33,18.5,46,32.1
		c13.4,13.4,23.9,29.2,33.2,46.4c0.3,0.6,1,0.9,1.7,0.8c0.8-0.2,1.3-1,1.1-1.8c-4.2-19.5-14-38.2-27.9-53
		c-13.7-15.1-31.2-26.5-49.8-34.5c-37.8-15.5-81.7-13.6-117.7,4.2c-36.2,17.3-64.5,49.7-77,87.7c-12.3,37.4-9.1,80,10.1,115.1
		c-5.6,20.7-10.7,41.5-16.1,62.2l-2.6,9.9l9.9-3.1c18.5-5.7,36.9-12,55.4-18c25.7,16.9,57,24.9,87.3,22.7
		c31.3-1.9,61.8-13.9,85.4-34.1c23.8-19.9,41.5-47.2,49.3-77.5c2-7.6,3.4-15.1,4.5-22.9C320.4,180.6,321.5,172.8,319,163.9z"/>
	<path class="st1" d="M114.4,248.7c-8.8-1.1-16.2,6.3-15,15.1c0.8,6,5.6,10.8,11.6,11.6c8.8,1.1,16.2-6.3,15-15.1
		C125.2,254.3,120.3,249.5,114.4,248.7z"/>
	<path class="st1" d="M173.3,248.7c-8.8-1.1-16.2,6.3-15,15.1c0.8,6,5.6,10.8,11.6,11.6c8.8,1.1,16.2-6.3,15-15.1
		C184.1,254.3,179.3,249.5,173.3,248.7z"/>
	<path class="st1" d="M232.3,248.7c-8.8-1.1-16.2,6.3-15,15.1c0.8,6,5.6,10.8,11.6,11.6c8.8,1.1,16.2-6.3,15-15.1
		C243.1,254.3,238.3,249.5,232.3,248.7z"/>
	<path class="st1" d="M247.8,142.4c4.2-6.1,8.2-15.4,7.4-26.1C253.2,92.5,226.9,79,205.3,82c-10.7,1.5-20.4,6.3-27.8,12.8
		c-7.4,6.5-12,14.1-14.7,21c-2.7,6.9-3.8,13-4.2,17.5c-0.4,4.4-0.2,7.2,0,7.6c1.5,3.8,2.7,3.6,4,1.1c1.3-2.5,2.5-7.4,4.8-13
		c2.3-5.7,5.7-12,10.3-17.3c4.6-5.5,10.3-9.5,15.8-12c2.9-1.5,8.6-3.8,15.6-4.2c6.7-0.4,15.1,1.7,21.7,6.3
		c6.7,4.4,9.9,10.9,9.7,17.2c-0.2,6.1-2.9,10.9-4.6,13.5c-7.6,11.4-20.6,20-33.9,21.9c-1.1,0.2-2.3,0.2-3.8,0.2
		c0.4-8.6,1.1-15.8,1.3-19.4c0.4-4.8,0.6-9.7-1.5-14.3c-1.7-4-4.8-7.6-9-9.3c-1.1-0.4-2.9-0.8-4,0c-1.7,1.5-0.8,5.3-0.8,7.2
		c0.2,7.8-0.4,15.6-0.6,23.4c-0.2,3.6-0.6,12.8-0.6,22.1c0,9.5,0.2,18.9,0.6,22.7c0,0.5,0.1,1,0.2,1.5
		c-6.7,12.6-13.4,21.6-19.9,26.9c-6.6,5.4-11.8,8.1-15.4,8.1c-2.4,0-4.2-0.9-5.3-2.6c-1.1-1.7-1.6-3.6-1.6-5.6
		c0-2.6,0.6-5.3,1.9-8.1c1.3-2.8,2.8-5.6,4.6-8.4c1.7-2.8,3.3-5.4,4.6-7.8c1.3-2.4,1.9-4.3,1.9-5.8c0-1.7-0.8-3-2.3-4.1
		c-1.5-1.1-3.2-1.9-4.9-2.4c-1.8-0.5-2.9-0.9-3.5-1c-0.8,0-1.4,0.4-1.8,1.1c-2.9,3.8-6.3,8.4-10.3,13.8c-4,5.4-8.1,10.7-12.4,15.9
		c-4.3,5.2-8.6,9.5-12.9,12.9c-4.3,3.4-8.1,5.1-11.6,5.1c-3.5,0-5.3-2.4-5.3-7.3c0-4.3,0.9-9.1,2.7-14.4c1.8-5.3,4.3-10.8,7.5-16.3
		c3.2-5.6,6.8-10.7,10.8-15.3c4-4.6,8.3-8.4,12.7-11.3c4.4-2.9,8.8-4.3,13-4.3c4,0,6.5,1.2,7.8,3.7c1.2,2.4,1.8,5.2,1.8,8.2
		c0,1.5-0.1,3-0.3,4.3c-0.2,1.4-0.5,2.7-0.8,4.1c4,0.8,7.4,0.2,10.3-1.6c2.9-1.8,4.3-4.8,4.3-8.9c0-5.5-2.3-9.9-6.9-13.2
		c-4.6-3.3-10.1-5-16.7-5c-6.2,0-12.5,1.5-18.7,4.6c-6.2,3-12.1,7-17.6,12c-5.5,4.9-10.4,10.5-14.6,16.6c-4.3,6.1-7.6,12.3-10,18.5
		c-2.4,6.2-3.7,12-3.7,17.4c0,6.7,1.9,11.7,5.6,15.1c3.7,3.3,8.1,5,13.1,5c5.8,0,11.2-2.1,16.3-6.4c5.1-4.3,10.7-10,16.8-17.4
		c0,0.2,0,0.3,0,0.5c0,0.2,0,0.4,0,0.7c0.3,4.6,2,8.8,5,12.8c3,4,7.7,5.9,13.9,5.9c5.8,0,11.5-1.8,17.1-5.4
		c5.6-3.6,11-8.5,16.1-14.8c3.8-4.7,7.2-9.9,10.2-15.7c2.6,11,7.1,20.9,11,15.6c0.8-1.1,0.2-17.2,0.6-34.9c0-4.2,0.2-8.4,0.4-12.6
		c0,1.1,6.9,1.1,7.8,1.1c9.7,0.4,19.4,4.2,26.5,10.9c12.6,9.9,4.8,25.9-5.5,33.9c-10.1,7.6-25.2,11.1-36.8,4.8
		c-1.9-1.1-3.4-4.4-5.5-4.6c-1.3-0.2-2.7,1.1-3.4,2.1c-1.3,1.9-1.7,4.2-1.3,7.2c0.6,2.5,1.9,5.7,4.6,8c13.7,13.9,39.5,3.6,52.2-6.5
		c2.7-2.1,5.5-4.6,7.8-7.6c6.9-8.6,10.3-19.1,8.2-29.5c0-0.2-0.1-0.3-0.1-0.5c-1.1-6.2-4.2-11.9-9-16c-3-2.5-6.2-4.4-9.2-6
		c-1.9-0.8-3.8-1.7-5.7-2.3c2.9-1.7,5.7-3.8,8.2-5.9C239.4,152.7,243.6,148.5,247.8,142.4z"/>
</g>
</svg>
