<!-- Generator: Adobe Illustrator 19.0.0, SVG Export Plug-In  -->
<svg version="1.1"
	 xmlns="http://www.w3.org/2000/svg" xmlns:xlink="http://www.w3.org/1999/xlink" xmlns:a="http://ns.adobe.com/AdobeSVGViewerExtensions/3.0/"
	 x="0px" y="0px" width="50px" height="50px" viewBox="0 0 50 50" style="enable-background:new 0 0 50 50;" xml:space="preserve">
<style type="text/css">
	.st0{fill:#FFFFFF;}
</style>
<defs>
</defs>
<path class="st0" d="M50,6.2c0,0-4.7,1.2-6.3,1.2c-1.6,0-6.2-1.2-6.2-1.2s0.7,2.5,1,4.4C36,10,34.7,8,33.3,5.8C31.6,3.1,29.6,0,25,0
	c-6,0-7.4,5.5-7.7,9.5c-1.8,0.1-3.6,0.5-5.4,1.2c-0.6,0.2-1,0.8-1,1.5v1.9h0.3C4.6,17,0,23.6,0,31.2C0,41.6,8.4,50,18.7,50
	s18.7-8.4,18.7-18.7c0-7.7-4.6-14.3-11.3-17.2h0.3v-1.9c0-0.6-0.4-1.2-1-1.5c-1.7-0.6-3.4-1-5.1-1.1c0.4-4.4,1.8-6.4,4.6-6.4
	c2.7,0,3.9,1.6,5.7,4.4c1.6,2.6,3.6,5.6,7.9,6.4c-0.3,2-1.1,4.9-1.1,4.9s4.6-1.3,6.2-1.3c1.5,0,6.3,1.3,6.3,1.3s-1.3-4.7-1.3-6.2
	S50,6.2,50,6.2L50,6.2z"/>
</svg>